<svg id="svg" version="1.1" width="400" height="290.90909090909093" xmlns="http://www.w3.org/2000/svg" xmlns:xlink="http://www.w3.org/1999/xlink" style="display: block;"><g id="svgg"><path id="path0" d="M333.972 28.645 C 333.777 28.879,333.685 29.239,333.768 29.445 C 333.861 29.676,333.926 29.621,333.941 29.300 C 333.953 29.015,334.258 28.663,334.618 28.518 C 335.061 28.340,335.120 28.249,334.799 28.237 C 334.539 28.226,334.166 28.410,333.972 28.645 M186.323 66.618 C 186.323 87.338,186.358 95.815,186.400 85.455 C 186.442 75.095,186.442 58.142,186.400 47.782 C 186.358 37.422,186.323 45.898,186.323 66.618 M362.782 36.110 C 362.759 36.708,363.498 37.339,363.990 37.141 C 364.221 37.049,364.166 36.983,363.845 36.968 C 363.560 36.956,363.208 36.651,363.064 36.291 C 362.886 35.848,362.795 35.789,362.782 36.110 M326.509 39.699 C 326.419 39.934,326.413 40.294,326.495 40.499 C 326.578 40.705,326.655 40.589,326.668 40.242 C 326.681 39.896,326.855 39.546,327.055 39.465 C 327.339 39.350,327.337 39.314,327.045 39.296 C 326.840 39.283,326.599 39.465,326.509 39.699 M370.545 40.938 C 371.065 41.002,371.916 41.002,372.436 40.938 C 372.956 40.873,372.531 40.820,371.491 40.820 C 370.451 40.820,370.025 40.873,370.545 40.938 M146.909 50.238 C 147.149 50.324,147.509 50.601,147.709 50.853 C 148.040 51.270,148.073 51.270,148.073 50.850 C 148.073 50.394,147.469 50.015,146.813 50.059 C 146.626 50.072,146.669 50.152,146.909 50.238 M57.401 68.923 C 57.430 69.310,57.651 69.680,57.891 69.745 C 58.179 69.823,58.215 69.781,57.997 69.622 C 57.816 69.490,57.595 69.120,57.507 68.800 C 57.381 68.341,57.358 68.367,57.401 68.923 M255.150 68.848 C 255.138 69.195,254.964 69.545,254.764 69.626 C 254.479 69.740,254.481 69.777,254.773 69.795 C 255.214 69.822,255.535 69.120,255.323 68.591 C 255.241 68.386,255.163 68.502,255.150 68.848 M352.073 73.018 C 352.138 73.258,352.508 73.479,352.896 73.508 C 353.451 73.551,353.477 73.528,353.018 73.402 C 352.698 73.314,352.328 73.093,352.196 72.912 C 352.037 72.694,351.996 72.730,352.073 73.018 M80.073 77.696 C 80.353 77.859,80.582 78.204,80.582 78.463 C 80.582 78.722,80.659 78.856,80.754 78.761 C 81.080 78.435,80.542 77.382,80.053 77.391 C 79.607 77.399,79.608 77.426,80.073 77.696 M363.982 79.016 C 364.252 79.097,364.539 79.384,364.620 79.654 C 364.726 80.010,364.750 79.987,364.707 79.567 C 364.672 79.228,364.408 78.964,364.069 78.929 C 363.650 78.886,363.626 78.910,363.982 79.016 M151.873 79.746 C 151.850 80.344,152.589 80.975,153.081 80.778 C 153.312 80.685,153.257 80.619,152.936 80.605 C 152.651 80.592,152.299 80.287,152.155 79.927 C 151.976 79.484,151.885 79.426,151.873 79.746 M70.118 87.326 C 70.109 87.814,71.162 88.353,71.489 88.027 C 71.583 87.932,71.449 87.855,71.190 87.855 C 70.931 87.855,70.586 87.625,70.423 87.345 C 70.153 86.881,70.126 86.879,70.118 87.326 M160.902 92.125 C 160.870 92.827,161.569 93.673,162.182 93.673 C 162.400 93.673,162.634 93.967,162.704 94.327 L 162.830 94.982 162.869 94.343 C 162.896 93.914,162.651 93.580,162.121 93.325 C 161.688 93.116,161.243 92.618,161.132 92.218 C 160.949 91.556,160.928 91.547,160.902 92.125 M342.003 97.651 C 342.184 97.783,342.405 98.153,342.493 98.473 C 342.619 98.931,342.642 98.906,342.599 98.350 C 342.570 97.963,342.349 97.593,342.109 97.528 C 341.821 97.450,341.785 97.492,342.003 97.651 M320.073 99.514 C 320.353 99.677,320.582 100.022,320.582 100.281 C 320.582 100.540,320.659 100.674,320.754 100.579 C 321.080 100.253,320.542 99.200,320.053 99.209 C 319.607 99.217,319.608 99.244,320.073 99.514 M326.418 101.564 C 326.395 102.163,327.134 102.794,327.627 102.596 C 327.858 102.503,327.802 102.437,327.482 102.423 C 327.196 102.410,326.845 102.105,326.700 101.745 C 326.522 101.303,326.431 101.244,326.418 101.564 M371.514 105.212 C 371.501 105.559,371.327 105.908,371.127 105.989 C 370.842 106.104,370.844 106.141,371.136 106.159 C 371.578 106.186,371.899 105.484,371.687 104.955 C 371.604 104.750,371.527 104.865,371.514 105.212 M86.418 108.837 C 86.395 109.435,87.134 110.066,87.627 109.869 C 87.858 109.776,87.802 109.710,87.482 109.696 C 87.196 109.683,86.845 109.378,86.700 109.018 C 86.522 108.575,86.431 108.517,86.418 108.837 M96.896 109.028 C 96.883 109.233,96.578 109.519,96.218 109.664 C 95.853 109.811,95.756 109.933,96.000 109.941 C 96.679 109.963,97.251 109.490,97.077 109.052 C 96.958 108.754,96.913 108.748,96.896 109.028 M256.896 109.028 C 256.883 109.233,256.578 109.519,256.218 109.664 C 255.853 109.811,255.756 109.933,256.000 109.941 C 256.679 109.963,257.251 109.490,257.077 109.052 C 256.958 108.754,256.913 108.748,256.896 109.028 M40.436 109.333 C 40.436 109.520,40.142 109.688,39.782 109.706 C 39.243 109.734,39.223 109.765,39.667 109.879 C 40.248 110.029,40.963 109.521,40.635 109.193 C 40.526 109.083,40.436 109.147,40.436 109.333 M206.619 109.382 C 206.684 109.622,207.054 109.842,207.441 109.872 C 207.996 109.914,208.022 109.892,207.564 109.766 C 207.244 109.677,206.874 109.457,206.741 109.275 C 206.583 109.057,206.541 109.093,206.619 109.382 M337.528 109.382 C 337.593 109.622,337.963 109.842,338.350 109.872 C 338.906 109.914,338.931 109.892,338.473 109.766 C 338.153 109.677,337.783 109.457,337.651 109.275 C 337.492 109.057,337.450 109.093,337.528 109.382 M356.945 110.628 C 356.945 110.887,356.716 111.232,356.436 111.395 C 355.972 111.665,355.970 111.692,356.417 111.700 C 356.905 111.709,357.444 110.656,357.117 110.330 C 357.023 110.235,356.945 110.369,356.945 110.628 " stroke="none" fill="#000000" fill-rule="evenodd"></path><path id="path1" d="" stroke="none" fill="#aaaaaa" fill-rule="evenodd"></path><path id="path2" d="" stroke="none" fill="#ffffff" fill-rule="evenodd"></path><path id="path3" d="M349.455 23.016 C 348.835 23.195,348.509 23.471,348.509 23.818 C 348.509 24.289,348.136 24.367,345.131 24.528 C 341.686 24.713,340.945 24.960,340.945 25.927 C 340.945 26.400,340.714 26.473,339.200 26.473 L 337.455 26.473 337.455 27.345 C 337.455 28.130,337.359 28.221,336.509 28.247 C 334.884 28.297,334.141 28.631,333.962 29.392 C 333.854 29.856,333.555 30.143,333.117 30.207 C 332.684 30.269,332.324 30.610,332.120 31.152 C 331.944 31.618,331.641 32.000,331.448 32.000 C 330.792 32.000,330.253 32.839,330.054 34.167 C 329.906 35.155,329.727 35.491,329.349 35.491 C 328.492 35.491,328.145 36.126,328.145 37.697 C 328.145 38.957,328.050 39.230,327.567 39.356 C 326.550 39.622,326.385 40.805,326.467 47.234 L 326.545 53.382 327.345 53.474 C 328.139 53.565,328.145 53.584,328.145 55.748 C 328.145 58.146,328.461 59.055,329.296 59.055 C 329.669 59.055,329.906 59.334,330.036 59.927 C 330.196 60.654,330.370 60.800,331.078 60.800 C 331.877 60.800,331.927 60.870,331.927 61.983 C 331.927 63.777,332.306 64.244,333.939 64.461 C 335.211 64.629,335.376 64.736,335.527 65.488 C 335.666 66.183,335.841 66.327,336.543 66.327 C 337.194 66.327,337.432 66.488,337.565 67.020 C 337.773 67.849,338.450 68.063,340.873 68.069 C 342.605 68.073,342.691 68.106,342.691 68.783 C 342.691 69.685,342.936 69.826,344.851 70.023 C 346.096 70.152,346.474 70.316,346.709 70.832 C 347.029 71.535,348.210 71.846,350.584 71.851 C 351.683 71.854,351.960 71.961,352.083 72.433 C 352.286 73.208,353.427 73.600,355.481 73.600 C 357.107 73.600,357.193 73.637,357.484 74.473 C 357.772 75.299,357.872 75.345,359.384 75.345 C 360.908 75.345,360.984 75.381,361.072 76.144 C 361.144 76.775,361.346 76.974,362.036 77.091 C 362.651 77.196,362.936 77.427,362.999 77.870 C 363.054 78.255,363.407 78.611,363.906 78.785 C 364.419 78.964,364.793 79.351,364.912 79.826 C 365.035 80.314,365.301 80.582,365.665 80.582 C 366.091 80.582,366.271 80.848,366.404 81.673 C 366.757 83.874,366.843 84.063,367.568 84.245 C 368.277 84.423,368.291 84.482,368.291 87.304 L 368.291 90.182 367.555 90.182 C 366.738 90.182,366.669 90.307,366.404 92.291 C 366.252 93.424,366.113 93.673,365.630 93.673 C 365.249 93.673,364.930 93.966,364.728 94.499 C 364.548 94.978,364.069 95.457,363.590 95.638 C 362.975 95.870,362.764 96.142,362.764 96.702 C 362.764 97.344,362.636 97.455,361.891 97.455 C 361.115 97.455,361.018 97.552,361.018 98.327 L 361.018 99.200 359.265 99.200 C 357.551 99.200,357.509 99.219,357.338 100.073 L 357.164 100.945 351.692 100.945 L 346.220 100.945 346.128 100.145 C 346.041 99.387,345.948 99.341,344.351 99.258 C 342.864 99.181,342.633 99.085,342.392 98.450 C 342.097 97.676,341.944 97.593,340.316 97.323 C 339.469 97.183,339.189 96.970,338.950 96.283 C 338.725 95.637,338.466 95.418,337.925 95.418 C 337.353 95.418,337.183 95.252,337.110 94.618 C 337.040 94.008,336.843 93.798,336.277 93.732 C 335.763 93.672,335.436 93.381,335.211 92.786 L 334.887 91.927 331.782 91.927 L 328.677 91.927 328.352 92.786 C 328.128 93.381,327.800 93.672,327.287 93.732 C 325.824 93.902,326.098 102.054,327.578 102.403 C 327.975 102.497,328.331 102.822,328.387 103.140 C 328.537 104.009,329.292 104.436,330.674 104.436 C 331.865 104.436,331.927 104.479,331.927 105.286 C 331.927 105.987,332.075 106.168,332.773 106.321 C 333.329 106.443,333.676 106.737,333.787 107.180 C 333.961 107.871,334.896 108.218,336.584 108.218 C 337.140 108.218,337.433 108.396,337.538 108.796 C 337.775 109.703,338.959 109.964,342.836 109.964 L 346.434 109.964 346.526 110.764 L 346.618 111.564 350.982 111.647 C 356.034 111.744,356.579 111.656,356.949 110.683 C 357.217 109.976,357.280 109.964,360.516 109.964 C 363.915 109.964,364.509 109.782,364.509 108.742 C 364.509 108.317,364.751 108.218,365.794 108.218 C 367.509 108.218,368.000 107.994,368.000 107.210 C 368.000 106.647,368.214 106.518,369.520 106.295 C 370.712 106.092,371.117 105.879,371.400 105.309 C 371.614 104.876,372.088 104.522,372.571 104.435 C 373.194 104.322,373.403 104.103,373.474 103.490 C 373.538 102.935,373.733 102.691,374.111 102.691 C 374.817 102.691,375.063 102.282,375.418 100.520 C 375.658 99.331,375.837 99.047,376.436 98.908 C 377.094 98.756,377.172 98.580,377.251 97.079 C 377.322 95.724,377.432 95.418,377.847 95.418 C 378.998 95.418,379.055 95.007,379.055 86.614 C 379.055 78.247,378.945 77.382,377.881 77.382 C 377.390 77.382,377.309 77.179,377.309 75.948 C 377.309 74.499,376.809 73.600,376.002 73.600 C 375.786 73.600,375.524 73.207,375.418 72.727 C 375.259 72.001,375.084 71.855,374.377 71.855 C 373.627 71.855,373.527 71.752,373.527 70.982 C 373.527 70.206,373.430 70.109,372.655 70.109 C 371.884 70.109,371.782 70.010,371.782 69.259 C 371.782 68.552,371.636 68.378,370.909 68.218 C 370.325 68.090,369.980 67.803,369.866 67.350 C 369.680 66.610,369.011 66.337,367.365 66.331 C 366.413 66.328,366.283 66.238,366.201 65.527 C 366.114 64.772,366.018 64.722,364.460 64.641 C 362.927 64.560,362.790 64.494,362.512 63.695 L 362.212 62.836 359.724 62.836 C 357.484 62.836,357.236 62.782,357.236 62.290 C 357.236 61.408,356.652 61.155,354.109 60.934 C 352.063 60.756,351.709 60.647,351.709 60.198 C 351.709 59.414,351.219 59.232,348.655 59.063 C 346.375 58.912,346.325 58.893,346.235 58.109 C 346.158 57.439,346.005 57.309,345.290 57.309 C 344.820 57.309,344.436 57.178,344.436 57.018 C 344.436 56.312,343.239 55.564,342.109 55.564 C 341.017 55.564,340.945 55.511,340.945 54.714 C 340.945 54.016,340.797 53.832,340.116 53.682 C 339.307 53.505,339.279 53.434,339.025 50.968 C 338.770 48.496,338.745 48.434,337.964 48.344 C 336.829 48.214,336.761 46.367,337.880 46.086 C 338.718 45.876,338.803 45.642,339.063 42.836 C 339.247 40.852,339.301 40.727,339.964 40.727 C 340.515 40.727,340.707 40.536,340.844 39.855 C 340.979 39.176,341.173 38.982,341.716 38.982 C 342.256 38.982,342.453 38.788,342.586 38.125 C 342.717 37.471,342.938 37.248,343.524 37.180 C 344.117 37.111,344.312 36.910,344.383 36.291 C 344.469 35.540,344.563 35.491,345.889 35.491 C 347.333 35.491,348.218 34.986,348.218 34.161 C 348.218 33.815,349.149 33.745,353.745 33.745 C 359.101 33.745,359.273 33.764,359.273 34.334 C 359.273 35.040,360.292 35.491,361.890 35.491 C 362.834 35.491,363.029 35.596,363.107 36.145 C 363.184 36.686,363.465 36.847,364.715 37.069 C 366.051 37.307,366.252 37.436,366.411 38.160 C 366.558 38.828,366.747 38.982,367.422 38.982 C 368.111 38.982,368.268 39.117,368.344 39.782 C 368.504 41.168,374.792 41.150,375.140 39.762 C 375.233 39.390,375.664 38.962,376.118 38.790 C 377.708 38.190,377.865 32.000,376.289 32.000 C 375.764 32.000,375.589 31.791,375.437 30.982 C 375.270 30.091,375.139 29.964,374.387 29.964 C 373.626 29.964,373.527 29.864,373.527 29.091 C 373.527 28.330,373.423 28.218,372.718 28.218 C 372.087 28.218,371.837 28.027,371.580 27.345 C 371.269 26.522,371.160 26.473,369.657 26.473 C 368.219 26.473,368.046 26.405,367.889 25.778 C 367.644 24.802,367.189 24.688,362.836 24.511 C 359.358 24.369,358.982 24.302,358.982 23.824 C 358.982 22.742,352.350 22.180,349.455 23.016 M34.691 24.647 C 33.866 24.749,33.745 24.873,33.745 25.618 C 33.745 26.369,33.642 26.473,32.896 26.473 C 32.188 26.473,32.014 26.619,31.855 27.345 C 31.724 27.939,31.487 28.218,31.114 28.218 C 29.965 28.218,29.964 28.270,29.968 67.981 C 29.972 109.588,29.920 107.808,31.139 108.075 C 31.762 108.212,31.987 108.449,32.055 109.037 L 32.145 109.818 35.990 109.818 C 41.541 109.818,40.847 114.325,41.018 77.153 C 41.098 59.759,41.270 45.691,41.399 45.891 C 41.528 46.091,41.888 46.255,42.199 46.255 C 42.627 46.255,42.764 46.457,42.764 47.091 C 42.764 47.787,42.910 47.956,43.636 48.102 C 44.212 48.217,44.510 48.452,44.511 48.793 C 44.515 50.115,45.120 51.454,45.754 51.545 C 46.246 51.615,46.422 51.861,46.491 52.582 C 46.571 53.413,46.685 53.527,47.437 53.527 C 48.242 53.527,48.291 53.595,48.291 54.710 C 48.291 56.179,48.718 57.018,49.465 57.018 C 49.867 57.018,50.036 57.216,50.036 57.687 C 50.036 58.482,50.540 59.055,51.239 59.055 C 51.573 59.055,51.774 59.325,51.835 59.855 C 51.907 60.478,52.100 60.675,52.709 60.745 C 53.422 60.827,53.507 60.974,53.691 62.446 C 53.869 63.871,53.986 64.089,54.711 64.341 C 55.290 64.543,55.556 64.854,55.619 65.404 C 55.689 66.009,55.887 66.202,56.509 66.274 C 57.174 66.350,57.309 66.506,57.309 67.200 C 57.309 68.426,57.821 69.563,58.445 69.727 C 58.761 69.809,59.063 70.225,59.160 70.709 C 59.275 71.286,59.552 71.604,60.047 71.729 C 60.537 71.852,60.825 72.178,60.951 72.755 C 61.104 73.448,61.287 73.600,61.972 73.600 C 62.785 73.600,62.810 73.645,62.895 75.273 C 62.977 76.847,63.028 76.951,63.765 77.036 C 64.409 77.110,64.564 77.291,64.637 78.054 C 64.711 78.811,64.868 78.998,65.492 79.070 C 66.174 79.150,66.278 79.318,66.451 80.628 C 66.622 81.910,66.756 82.139,67.505 82.422 C 68.172 82.674,68.364 82.926,68.364 83.555 C 68.364 84.260,68.476 84.364,69.236 84.364 C 70.058 84.364,70.109 84.431,70.109 85.503 C 70.109 87.011,70.346 87.557,71.126 87.854 C 71.527 88.007,71.841 88.440,71.952 88.995 C 72.095 89.712,72.278 89.891,72.865 89.891 C 73.459 89.891,73.600 90.033,73.600 90.633 C 73.600 91.194,73.810 91.449,74.458 91.675 C 75.195 91.932,75.345 92.167,75.513 93.333 C 75.740 94.900,76.068 95.418,76.836 95.418 C 77.249 95.418,77.382 95.631,77.382 96.291 C 77.382 97.067,77.479 97.164,78.255 97.164 C 78.979 97.164,79.127 97.281,79.127 97.855 C 79.127 99.449,79.489 100.370,80.183 100.544 C 80.646 100.661,80.873 100.927,80.873 101.355 C 80.873 102.120,81.385 102.691,82.071 102.691 C 82.391 102.691,82.641 103.006,82.764 103.564 C 82.923 104.290,83.097 104.436,83.805 104.436 C 84.612 104.436,84.655 104.499,84.655 105.690 C 84.655 107.072,85.082 107.826,85.951 107.977 C 86.269 108.032,86.594 108.388,86.687 108.785 C 86.925 109.791,88.143 110.025,92.548 109.913 C 96.768 109.805,96.918 109.734,97.150 107.708 C 97.291 106.482,97.395 106.317,98.074 106.239 C 99.222 106.106,99.195 107.052,99.171 66.764 C 99.147 26.210,99.160 26.664,97.981 26.528 C 97.377 26.458,97.178 26.260,97.109 25.655 C 96.922 24.043,90.403 23.985,90.082 25.592 C 89.951 26.244,89.732 26.453,89.102 26.525 L 88.291 26.618 88.217 57.647 L 88.143 88.676 87.285 88.352 C 86.691 88.128,86.401 87.800,86.341 87.287 C 86.275 86.725,86.065 86.524,85.470 86.455 C 84.782 86.376,84.660 86.202,84.489 85.059 C 84.286 83.703,83.748 82.909,83.034 82.909 C 82.765 82.909,82.618 82.598,82.618 82.029 C 82.618 81.284,82.484 81.122,81.745 80.975 C 81.024 80.830,80.873 80.658,80.873 79.983 C 80.873 78.771,80.400 77.747,79.746 77.539 C 79.414 77.434,79.087 76.989,78.979 76.496 C 78.837 75.851,78.625 75.636,78.128 75.636 C 77.630 75.636,77.399 75.402,77.196 74.691 C 76.989 73.962,76.745 73.724,76.136 73.653 C 75.400 73.568,75.345 73.466,75.345 72.184 C 75.345 70.736,74.982 70.109,74.143 70.109 C 73.809 70.109,73.608 69.839,73.547 69.309 C 73.474 68.681,73.283 68.489,72.655 68.417 C 72.055 68.348,71.854 68.166,71.853 67.690 C 71.849 66.261,71.266 64.912,70.612 64.819 C 70.153 64.754,69.925 64.476,69.819 63.855 C 69.701 63.165,69.503 62.963,68.871 62.890 C 68.209 62.813,68.073 62.657,68.073 61.967 C 68.073 61.281,67.921 61.104,67.200 60.945 C 66.393 60.768,66.327 60.658,66.327 59.489 C 66.327 58.217,65.788 57.309,65.034 57.309 C 64.825 57.309,64.576 56.916,64.480 56.436 C 64.343 55.750,64.152 55.564,63.589 55.564 C 62.956 55.564,62.849 55.402,62.672 54.182 C 62.442 52.591,62.116 52.073,61.346 52.073 C 60.932 52.073,60.800 51.860,60.800 51.193 C 60.800 50.448,60.666 50.286,59.927 50.138 C 59.200 49.993,59.055 49.824,59.055 49.127 C 59.055 48.392,58.949 48.291,58.182 48.291 C 57.414 48.291,57.309 48.190,57.309 47.455 C 57.309 45.607,56.995 44.868,56.136 44.696 C 55.502 44.570,55.292 44.346,55.220 43.720 C 55.147 43.080,54.959 42.890,54.327 42.817 C 53.642 42.738,53.527 42.592,53.523 41.799 C 53.517 40.277,53.209 39.568,52.474 39.383 C 51.978 39.259,51.782 39.005,51.782 38.489 C 51.782 37.957,51.556 37.682,50.923 37.443 C 50.328 37.219,50.037 36.891,49.977 36.378 C 49.912 35.820,49.700 35.614,49.121 35.547 C 48.425 35.467,48.329 35.301,48.103 33.802 C 47.875 32.283,47.788 32.138,47.055 32.053 C 46.383 31.976,46.255 31.823,46.255 31.101 C 46.255 30.377,46.116 30.212,45.382 30.065 C 44.655 29.920,44.509 29.751,44.509 29.055 C 44.509 28.323,44.402 28.218,43.656 28.218 C 42.941 28.218,42.787 28.088,42.710 27.418 C 42.634 26.752,42.461 26.603,41.673 26.527 C 40.853 26.448,40.727 26.328,40.727 25.622 C 40.727 24.567,38.386 24.188,34.691 24.647 M121.066 24.696 C 119.881 24.905,119.287 25.353,119.277 26.045 C 119.275 26.210,118.900 26.486,118.445 26.658 C 117.210 27.124,117.243 25.985,117.240 68.378 C 117.236 109.237,117.206 108.218,118.435 108.218 C 118.755 108.218,119.005 108.534,119.127 109.091 L 119.319 109.964 122.787 109.964 L 126.255 109.964 126.255 109.091 C 126.255 108.352,126.367 108.218,126.989 108.218 C 128.290 108.218,128.291 108.193,128.291 76.490 L 128.291 46.255 129.164 46.255 C 129.888 46.255,130.036 46.372,130.036 46.945 C 130.036 48.540,130.398 49.461,131.092 49.635 C 131.555 49.752,131.782 50.018,131.782 50.446 C 131.782 51.211,132.294 51.782,132.981 51.782 C 133.300 51.782,133.550 52.097,133.673 52.655 C 133.832 53.381,134.007 53.527,134.714 53.527 C 135.552 53.527,135.564 53.550,135.564 55.153 C 135.564 56.686,135.612 56.796,136.423 57.102 C 137.018 57.327,137.308 57.654,137.368 58.168 C 137.432 58.720,137.646 58.931,138.204 58.996 C 138.860 59.073,138.987 59.271,139.222 60.592 C 139.431 61.766,139.652 62.179,140.218 62.457 C 140.652 62.670,141.005 63.141,141.092 63.625 C 141.205 64.248,141.424 64.458,142.038 64.528 C 142.758 64.611,142.836 64.733,142.836 65.765 C 142.836 66.862,143.589 68.073,144.272 68.073 C 144.421 68.073,144.585 68.433,144.635 68.873 C 144.707 69.496,144.900 69.693,145.510 69.763 C 146.154 69.838,146.309 70.018,146.383 70.781 C 146.456 71.540,146.613 71.725,147.242 71.798 C 147.939 71.879,148.035 72.044,148.260 73.544 C 148.488 75.062,148.576 75.208,149.309 75.292 C 149.979 75.369,150.109 75.523,150.109 76.238 C 150.109 76.983,150.215 77.091,150.941 77.091 C 151.724 77.091,151.784 77.179,151.947 78.552 C 152.155 80.310,152.300 80.582,153.035 80.582 C 153.398 80.582,153.600 80.781,153.600 81.140 C 153.600 82.131,153.938 82.618,154.626 82.618 C 155.134 82.618,155.345 82.828,155.487 83.472 C 155.628 84.113,155.887 84.372,156.528 84.513 C 157.345 84.693,157.382 84.769,157.382 86.285 C 157.382 87.812,157.413 87.875,158.255 88.044 C 158.981 88.189,159.127 88.358,159.127 89.055 C 159.127 89.778,159.238 89.891,159.947 89.891 C 160.707 89.891,160.786 90.002,161.038 91.413 C 161.250 92.603,161.468 93.014,162.036 93.293 C 162.470 93.506,162.823 93.978,162.910 94.461 C 163.023 95.085,163.242 95.294,163.856 95.365 C 164.539 95.444,164.655 95.590,164.659 96.383 C 164.665 97.905,164.973 98.614,165.707 98.798 C 166.204 98.923,166.400 99.176,166.400 99.693 C 166.400 100.225,166.626 100.499,167.259 100.738 C 167.854 100.963,168.145 101.290,168.205 101.804 C 168.269 102.362,168.482 102.568,169.060 102.635 C 169.757 102.715,169.853 102.880,170.079 104.380 C 170.307 105.898,170.394 106.044,171.127 106.128 C 171.764 106.202,171.927 106.370,171.927 106.954 C 171.927 107.501,172.148 107.770,172.800 108.016 C 173.286 108.200,173.673 108.559,173.673 108.828 C 173.673 109.829,174.369 109.983,178.513 109.899 L 182.545 109.818 182.636 109.036 C 182.706 108.431,182.904 108.233,183.509 108.163 C 184.150 108.089,184.307 107.907,184.380 107.155 C 184.447 106.463,184.643 106.193,185.176 106.059 C 186.236 105.793,186.201 107.235,186.116 66.473 L 186.036 28.364 185.272 28.275 C 184.581 28.195,184.494 28.044,184.366 26.717 C 184.199 24.975,184.033 24.845,181.640 24.589 C 177.409 24.136,175.808 24.714,175.532 26.794 C 175.391 27.856,175.219 28.218,174.857 28.218 C 173.653 28.218,173.673 27.721,173.664 58.167 C 173.658 78.180,173.561 87.257,173.359 86.909 C 173.195 86.629,172.817 86.400,172.518 86.400 C 172.150 86.400,171.911 86.118,171.782 85.527 C 171.622 84.801,171.448 84.655,170.741 84.655 C 169.904 84.655,169.891 84.630,169.891 83.039 C 169.891 81.514,169.844 81.408,169.035 81.126 C 168.420 80.911,168.155 80.610,168.090 80.050 C 168.022 79.461,167.819 79.252,167.251 79.186 C 166.594 79.109,166.468 78.911,166.233 77.586 C 166.013 76.353,165.816 76.003,165.164 75.693 C 164.609 75.430,164.364 75.093,164.364 74.595 C 164.364 74.029,164.178 73.839,163.491 73.702 C 162.764 73.556,162.618 73.387,162.618 72.691 C 162.618 71.956,162.513 71.855,161.745 71.855 C 160.897 71.855,160.873 71.816,160.873 70.458 C 160.873 68.982,160.512 68.364,159.651 68.364 C 159.298 68.364,159.127 68.145,159.127 67.695 C 159.127 66.905,158.625 66.327,157.938 66.327 C 157.598 66.327,157.387 65.990,157.253 65.236 C 156.932 63.424,156.808 63.192,156.062 63.005 C 155.501 62.864,155.345 62.637,155.345 61.958 C 155.345 61.193,155.245 61.091,154.491 61.091 C 153.740 61.091,153.626 60.977,153.546 60.145 C 153.470 59.358,153.321 59.185,152.655 59.108 C 151.958 59.028,151.855 58.889,151.855 58.036 C 151.855 56.567,151.382 55.564,150.691 55.564 C 150.266 55.564,150.046 55.322,149.926 54.721 C 149.798 54.083,149.554 53.838,148.915 53.710 C 148.182 53.564,148.073 53.412,148.073 52.540 C 148.073 51.164,147.817 50.617,147.036 50.320 C 146.602 50.155,146.336 49.782,146.275 49.251 C 146.201 48.607,146.014 48.417,145.382 48.344 C 144.748 48.271,144.582 48.102,144.582 47.529 C 144.582 46.990,144.364 46.730,143.723 46.507 C 142.987 46.250,142.837 46.015,142.669 44.849 C 142.442 43.282,142.113 42.764,141.346 42.764 C 140.933 42.764,140.800 42.551,140.800 41.891 C 140.800 41.115,140.703 41.018,139.927 41.018 C 139.203 41.018,139.055 40.901,139.055 40.327 C 139.055 38.733,138.693 37.812,137.999 37.637 C 137.536 37.521,137.309 37.255,137.309 36.827 C 137.309 36.062,136.797 35.491,136.110 35.491 C 135.791 35.491,135.541 35.175,135.418 34.618 C 135.259 33.891,135.084 33.745,134.377 33.745 C 133.540 33.745,133.527 33.721,133.527 32.130 C 133.527 30.604,133.480 30.499,132.672 30.217 C 132.056 30.002,131.791 29.700,131.726 29.141 C 131.657 28.542,131.457 28.343,130.854 28.273 C 130.249 28.203,130.051 28.005,129.981 27.401 C 129.907 26.753,129.727 26.602,128.945 26.527 C 128.169 26.452,128.000 26.312,128.000 25.744 C 128.000 25.364,127.892 24.986,127.760 24.904 C 127.311 24.627,122.333 24.472,121.066 24.696 M274.836 24.648 C 273.849 24.752,273.745 24.844,273.745 25.618 C 273.745 26.369,273.642 26.473,272.896 26.473 C 272.067 26.473,272.042 26.518,271.861 28.291 C 271.601 30.840,271.806 107.539,272.073 107.806 C 272.193 107.927,273.004 108.084,273.875 108.156 C 275.330 108.277,275.466 108.350,275.548 109.053 L 275.636 109.818 296.582 109.898 C 319.030 109.984,318.749 109.995,318.889 109.035 C 318.954 108.591,319.275 108.322,319.950 108.149 L 320.917 107.899 320.822 103.962 C 320.693 98.613,323.115 99.200,301.181 99.200 L 282.764 99.200 282.764 63.297 C 282.764 24.772,282.819 26.473,281.569 26.473 C 280.837 26.473,280.727 26.364,280.727 25.641 C 280.727 24.554,278.815 24.232,274.836 24.648 M204.811 27.034 C 204.347 27.901,204.394 107.405,204.858 107.869 C 205.050 108.061,205.493 108.218,205.842 108.218 C 206.232 108.218,206.536 108.442,206.629 108.796 C 206.925 109.929,207.663 109.964,231.855 109.964 C 255.800 109.964,256.661 109.925,257.006 108.837 C 257.110 108.510,257.554 108.179,258.026 108.075 C 259.682 107.711,259.675 100.945,258.019 100.945 C 257.263 100.945,257.164 100.844,257.164 100.073 L 257.164 99.200 236.364 99.200 L 215.564 99.200 215.564 85.527 L 215.564 71.855 233.140 71.855 C 251.758 71.855,251.636 71.861,251.636 70.846 C 251.636 70.283,251.850 70.154,253.156 69.932 C 255.072 69.605,255.408 69.018,255.414 65.987 C 255.419 63.297,255.269 62.836,254.388 62.836 C 253.866 62.836,253.690 62.653,253.619 62.038 C 253.484 60.865,253.605 60.872,233.673 60.834 L 215.564 60.800 215.564 48.145 L 215.564 35.491 235.872 35.491 C 251.731 35.491,256.289 35.411,256.680 35.125 C 257.120 34.803,257.171 34.262,257.100 30.688 L 257.018 26.618 231.066 26.544 C 205.640 26.471,205.107 26.481,204.811 27.034 " stroke="none" fill="#58595b" fill-rule="evenodd"></path><path id="path4" d="M33.745 153.718 C 33.745 155.346,33.681 155.566,33.236 155.460 C 32.125 155.194,31.807 155.799,31.733 158.327 C 31.712 159.017,31.589 159.127,30.836 159.127 C 30.069 159.127,29.964 159.228,29.964 159.964 C 29.964 160.660,29.818 160.829,29.091 160.975 C 28.237 161.145,28.218 161.187,28.218 162.902 L 28.218 164.655 27.345 164.655 L 26.473 164.655 26.473 166.400 C 26.473 168.131,26.466 168.145,25.631 168.145 C 24.567 168.145,24.519 168.292,24.462 171.659 C 24.405 175.024,24.527 175.418,25.631 175.418 C 26.453 175.418,26.473 175.453,26.473 176.960 C 26.473 178.565,26.815 179.200,27.680 179.200 C 28.096 179.200,28.205 179.507,28.276 180.873 C 28.359 182.456,28.406 182.550,29.164 182.638 C 29.874 182.719,29.964 182.850,29.968 183.801 C 29.973 185.240,30.253 186.200,30.653 186.152 C 31.450 186.057,31.709 186.225,31.714 186.836 C 31.718 187.529,32.085 188.285,32.396 188.243 C 33.657 188.074,33.745 188.187,33.745 189.964 L 33.745 191.709 47.273 191.709 L 60.800 191.709 60.800 190.836 C 60.800 190.068,60.901 189.964,61.639 189.964 C 62.591 189.964,62.826 189.460,62.832 187.401 C 62.835 186.633,62.950 186.218,63.130 186.329 C 63.777 186.729,64.582 186.153,64.582 185.289 C 64.582 184.580,64.701 184.436,65.289 184.436 C 65.940 184.436,66.428 183.785,66.303 183.085 C 66.068 181.774,66.367 180.980,67.127 180.892 C 67.894 180.804,67.931 180.724,68.014 178.982 C 68.094 177.297,68.150 177.164,68.778 177.164 C 69.574 177.164,70.174 176.543,70.097 175.799 C 69.929 174.183,70.104 173.712,70.909 173.619 C 72.227 173.468,72.303 170.327,70.996 170.039 C 70.205 169.866,70.109 169.729,70.105 168.777 C 70.098 166.909,69.842 166.400,68.912 166.400 C 68.118 166.400,67.726 164.835,68.129 163.273 C 68.160 163.153,67.800 162.988,67.329 162.908 C 66.532 162.771,66.466 162.661,66.381 161.315 C 66.280 159.711,65.946 159.127,65.128 159.127 C 64.715 159.127,64.582 158.914,64.582 158.255 C 64.582 157.479,64.485 157.382,63.709 157.382 C 62.877 157.382,62.836 157.324,62.832 156.145 C 62.826 154.105,62.589 153.600,61.639 153.600 C 60.901 153.600,60.800 153.495,60.800 152.727 L 60.800 151.855 47.273 151.855 L 33.745 151.855 33.745 153.718 M110.140 152.315 C 110.043 152.568,109.964 153.343,109.964 154.037 C 109.964 155.203,109.897 155.314,109.091 155.491 C 108.241 155.678,108.218 155.728,108.218 157.405 C 108.218 159.125,108.217 159.127,107.345 159.127 C 106.575 159.127,106.473 159.227,106.473 159.977 C 106.473 160.680,106.326 160.859,105.619 161.014 C 105.087 161.131,104.766 161.386,104.766 161.692 C 104.766 163.547,104.350 164.624,103.600 164.711 C 102.888 164.794,102.831 164.911,102.750 166.455 C 102.668 168.011,102.616 168.115,101.877 168.200 L 101.091 168.291 101.009 171.855 L 100.928 175.418 101.809 175.418 L 102.691 175.418 102.691 177.141 C 102.691 178.804,102.720 178.869,103.533 179.048 C 104.301 179.216,104.397 179.379,104.625 180.889 C 104.860 182.445,104.924 182.545,105.674 182.534 C 106.385 182.524,106.473 182.627,106.473 183.479 C 106.473 184.345,106.554 184.436,107.332 184.436 C 108.182 184.436,108.191 184.454,108.277 186.255 C 108.360 187.989,108.400 188.077,109.150 188.163 C 109.889 188.249,109.941 188.352,110.022 189.909 L 110.109 191.564 123.709 191.639 L 137.309 191.715 137.309 190.839 C 137.309 190.060,137.405 189.964,138.182 189.964 C 139.053 189.964,139.055 189.961,139.055 188.238 C 139.055 186.571,139.082 186.508,139.855 186.419 C 140.518 186.343,140.670 186.168,140.744 185.399 C 140.818 184.636,140.973 184.456,141.617 184.381 C 142.329 184.299,142.424 184.139,142.665 182.618 C 142.843 181.498,143.066 180.945,143.341 180.945 C 144.143 180.945,144.582 180.131,144.582 178.639 C 144.582 177.194,144.600 177.164,145.455 177.164 C 146.326 177.164,146.327 177.161,146.327 175.438 C 146.327 173.771,146.355 173.708,147.127 173.619 C 148.604 173.449,148.362 169.891,146.873 169.891 C 146.400 169.891,146.327 169.659,146.327 168.145 L 146.327 166.400 145.455 166.400 C 144.645 166.400,144.580 166.320,144.551 165.309 C 144.489 163.120,144.466 163.058,143.675 162.966 C 142.978 162.885,142.892 162.725,142.657 161.075 C 142.413 159.361,142.361 159.273,141.600 159.284 C 140.887 159.294,140.800 159.191,140.800 158.339 C 140.800 157.473,140.718 157.382,139.941 157.382 C 139.091 157.382,139.081 157.364,138.996 155.564 C 138.939 154.374,138.783 153.733,138.545 153.709 C 138.345 153.689,137.985 153.656,137.745 153.636 C 137.463 153.613,137.309 153.293,137.309 152.727 L 137.309 151.855 123.813 151.855 C 111.775 151.855,110.298 151.904,110.140 152.315 M186.667 152.048 C 186.560 152.155,186.473 152.941,186.473 153.794 C 186.473 155.132,186.396 155.345,185.912 155.345 C 184.941 155.345,184.436 156.149,184.436 157.694 C 184.436 159.093,184.415 159.127,183.564 159.127 C 182.803 159.127,182.691 159.231,182.691 159.936 C 182.691 160.568,182.500 160.817,181.818 161.075 C 180.992 161.386,180.945 161.491,180.945 163.029 C 180.945 164.641,180.938 164.655,180.073 164.655 L 179.200 164.655 179.200 166.400 C 179.200 168.177,179.112 168.289,177.851 168.121 C 177.398 168.060,177.219 169.006,177.187 171.641 C 177.146 175.054,177.258 175.418,178.358 175.418 C 179.192 175.418,179.200 175.435,179.200 177.141 C 179.200 178.818,179.223 178.868,180.073 179.055 C 180.892 179.235,180.945 179.330,180.945 180.619 C 180.945 182.074,181.309 182.691,182.167 182.691 C 182.555 182.691,182.691 182.917,182.691 183.564 C 182.691 184.339,182.788 184.436,183.564 184.436 C 184.396 184.436,184.437 184.494,184.440 185.673 C 184.447 187.714,184.683 188.218,185.634 188.218 C 186.465 188.218,186.473 188.234,186.473 189.964 L 186.473 191.709 200.000 191.709 L 213.527 191.709 213.527 190.836 C 213.527 190.064,213.626 189.964,214.387 189.964 C 215.291 189.964,215.413 189.693,215.632 187.200 C 215.679 186.669,215.880 186.316,216.145 186.299 C 216.385 186.283,216.745 186.250,216.945 186.226 C 217.146 186.202,217.309 185.790,217.309 185.309 C 217.309 184.579,217.424 184.436,218.017 184.436 C 218.667 184.436,219.156 183.785,219.030 183.085 C 218.795 181.774,219.094 180.980,219.855 180.892 C 220.621 180.804,220.658 180.724,220.741 178.982 C 220.826 177.198,220.843 177.164,221.655 177.164 C 222.617 177.164,222.836 176.757,222.836 174.977 C 222.836 173.813,222.900 173.704,223.636 173.619 C 224.392 173.532,224.441 173.436,224.523 171.879 C 224.610 170.213,224.047 169.468,223.130 170.035 C 222.950 170.146,222.835 169.731,222.832 168.963 C 222.826 166.904,222.591 166.400,221.639 166.400 C 220.845 166.400,220.454 164.835,220.856 163.273 C 220.887 163.153,220.527 162.988,220.056 162.908 C 219.259 162.771,219.194 162.661,219.109 161.315 C 219.007 159.711,218.673 159.127,217.855 159.127 C 217.442 159.127,217.309 158.914,217.309 158.255 C 217.309 157.479,217.212 157.382,216.436 157.382 C 215.604 157.382,215.563 157.324,215.560 156.145 C 215.553 154.105,215.317 153.600,214.366 153.600 C 213.628 153.600,213.527 153.495,213.527 152.727 L 213.527 151.855 200.194 151.855 C 192.861 151.855,186.773 151.942,186.667 152.048 M262.867 152.315 C 262.770 152.568,262.691 153.343,262.691 154.037 C 262.691 155.203,262.624 155.314,261.818 155.491 C 260.968 155.678,260.945 155.728,260.945 157.405 C 260.945 159.125,260.944 159.127,260.073 159.127 C 259.302 159.127,259.200 159.227,259.200 159.977 C 259.200 160.680,259.053 160.859,258.347 161.014 C 257.815 161.131,257.494 161.386,257.494 161.692 C 257.493 163.547,257.077 164.624,256.327 164.711 C 255.614 164.794,255.558 164.910,255.476 166.473 C 255.413 167.679,255.271 168.156,254.967 168.182 C 254.735 168.202,254.382 168.235,254.182 168.255 C 253.918 168.281,253.796 169.265,253.737 171.855 L 253.655 175.418 254.537 175.418 C 255.356 175.418,255.420 175.495,255.449 176.509 C 255.511 178.698,255.534 178.760,256.325 178.852 C 257.022 178.933,257.108 179.093,257.343 180.743 C 257.587 182.457,257.639 182.545,258.400 182.534 C 259.113 182.524,259.200 182.627,259.200 183.479 C 259.200 184.345,259.282 184.436,260.059 184.436 C 260.909 184.436,260.919 184.454,261.004 186.255 C 261.061 187.444,261.217 188.085,261.455 188.109 C 261.655 188.129,262.008 188.162,262.240 188.182 C 262.544 188.208,262.686 188.685,262.749 189.891 L 262.836 191.564 276.364 191.564 L 289.891 191.564 289.983 190.764 C 290.060 190.094,290.214 189.964,290.928 189.964 C 291.778 189.964,291.782 189.955,291.782 188.218 C 291.782 187.034,291.899 186.462,292.145 186.439 C 292.345 186.421,292.705 186.388,292.945 186.366 C 293.212 186.342,293.417 185.967,293.472 185.399 C 293.546 184.636,293.700 184.456,294.344 184.381 C 295.055 184.299,295.151 184.138,295.390 182.633 C 295.626 181.146,295.731 180.966,296.408 180.888 C 297.121 180.805,297.169 180.696,297.250 178.982 C 297.336 177.182,297.345 177.164,298.196 177.164 C 298.986 177.164,299.055 177.081,299.055 176.128 C 299.055 175.506,299.172 175.165,299.348 175.274 C 300.412 175.932,300.824 175.129,300.738 172.559 C 300.655 170.047,300.651 170.036,299.855 169.944 C 299.082 169.855,299.055 169.793,299.055 168.126 C 299.055 166.402,299.053 166.400,298.182 166.400 C 297.317 166.400,297.309 166.386,297.309 164.785 C 297.309 163.265,297.260 163.152,296.467 162.876 C 295.720 162.616,295.596 162.395,295.375 160.928 C 295.140 159.373,295.076 159.273,294.326 159.284 C 293.615 159.294,293.527 159.191,293.527 158.339 C 293.527 157.473,293.446 157.382,292.668 157.382 C 291.818 157.382,291.809 157.364,291.723 155.564 C 291.666 154.374,291.511 153.733,291.273 153.709 C 291.073 153.689,290.713 153.656,290.473 153.636 C 290.190 153.613,290.036 153.293,290.036 152.727 L 290.036 151.855 276.540 151.855 C 264.502 151.855,263.025 151.904,262.867 152.315 M339.564 152.053 C 339.335 152.142,339.200 152.778,339.200 153.770 C 339.200 155.132,339.124 155.345,338.639 155.345 C 337.877 155.345,337.121 156.156,337.180 156.910 C 337.327 158.798,337.195 159.127,336.291 159.127 C 335.530 159.127,335.418 159.231,335.418 159.936 C 335.418 160.568,335.227 160.817,334.545 161.075 C 333.719 161.386,333.673 161.491,333.673 163.029 C 333.673 164.641,333.666 164.655,332.800 164.655 L 331.927 164.655 331.927 166.400 C 331.927 168.130,331.920 168.145,331.088 168.145 C 330.051 168.145,329.899 168.610,329.899 171.782 C 329.899 174.954,330.051 175.418,331.088 175.418 C 331.882 175.418,332.274 176.983,331.871 178.545 C 331.840 178.665,332.200 178.830,332.671 178.911 C 333.472 179.048,333.532 179.152,333.602 180.511 C 333.660 181.636,333.607 181.849,333.369 181.455 C 333.200 181.175,332.815 180.945,332.514 180.945 C 332.132 180.945,331.938 180.703,331.874 180.145 C 331.797 179.482,331.623 179.330,330.850 179.255 C 329.922 179.166,329.917 179.157,329.832 177.364 C 329.749 175.641,329.711 175.560,328.945 175.472 C 328.274 175.394,328.145 175.242,328.145 174.519 L 328.145 173.658 314.691 173.738 L 301.236 173.818 300.980 175.621 C 300.745 177.271,300.659 177.431,299.962 177.512 C 299.171 177.603,299.148 177.665,299.085 179.855 C 299.057 180.866,298.991 180.945,298.182 180.945 L 297.309 180.945 297.309 182.691 C 297.309 183.875,297.192 184.447,296.945 184.470 C 296.745 184.488,296.385 184.521,296.145 184.543 C 295.878 184.567,295.674 184.942,295.619 185.510 C 295.545 186.273,295.391 186.453,294.747 186.528 C 294.036 186.610,293.939 186.771,293.701 188.276 C 293.465 189.763,293.360 189.943,292.682 190.021 L 291.927 190.109 291.846 193.673 L 291.764 197.236 292.646 197.236 C 293.560 197.236,293.691 197.560,293.543 199.454 C 293.485 200.208,294.241 201.018,295.003 201.018 C 295.488 201.018,295.564 201.232,295.564 202.599 C 295.564 204.188,296.150 204.900,297.016 204.365 C 297.192 204.256,297.309 204.597,297.309 205.219 C 297.309 206.172,297.378 206.255,298.168 206.255 C 299.018 206.255,299.028 206.273,299.113 208.073 C 299.196 209.815,299.233 209.895,300.000 209.983 C 300.710 210.065,300.800 210.195,300.804 211.147 C 300.811 213.018,301.066 213.527,301.998 213.527 C 302.728 213.527,302.836 213.636,302.836 214.366 C 302.836 214.990,303.004 215.250,303.491 215.380 C 304.356 215.612,325.650 215.609,327.055 215.377 L 328.145 215.197 328.145 213.489 C 328.145 211.786,328.148 211.782,329.018 211.782 C 329.789 211.782,329.891 211.682,329.891 210.932 C 329.891 210.229,330.038 210.050,330.744 209.895 C 331.278 209.778,331.596 209.524,331.595 209.218 C 331.593 208.948,331.658 208.335,331.740 207.855 C 331.821 207.375,331.896 206.827,331.907 206.638 C 331.918 206.448,332.287 206.252,332.727 206.201 C 333.485 206.114,333.532 206.020,333.615 204.436 C 333.677 203.230,333.819 202.753,334.124 202.727 C 334.356 202.707,334.709 202.675,334.909 202.655 C 335.147 202.631,335.303 201.989,335.359 200.800 C 335.445 199.000,335.454 198.982,336.305 198.982 C 337.086 198.982,337.164 198.893,337.164 198.004 C 337.164 197.131,337.238 197.040,337.857 197.159 C 338.777 197.335,338.904 197.060,339.069 194.524 C 339.218 192.227,338.929 191.578,337.840 191.764 C 337.380 191.842,337.297 191.610,337.222 190.036 C 337.137 188.236,337.127 188.218,336.277 188.218 C 335.422 188.218,335.418 188.210,335.418 186.492 C 335.418 184.825,335.391 184.763,334.618 184.674 C 333.894 184.591,333.810 184.458,333.727 183.273 C 333.654 182.220,333.708 182.035,334.003 182.327 C 334.206 182.527,334.607 182.691,334.895 182.691 C 335.282 182.691,335.418 182.917,335.418 183.564 C 335.418 184.339,335.515 184.436,336.291 184.436 C 337.123 184.436,337.164 184.494,337.168 185.673 C 337.174 187.714,337.411 188.218,338.361 188.218 C 339.192 188.218,339.200 188.234,339.200 189.964 L 339.200 191.709 352.727 191.709 L 366.255 191.709 366.255 190.836 C 366.255 190.059,366.351 189.964,367.135 189.964 C 367.880 189.964,368.041 189.830,368.190 189.087 C 368.308 188.498,368.582 188.156,369.028 188.044 C 369.754 187.862,370.026 187.185,370.032 185.547 C 370.036 184.595,370.126 184.465,370.836 184.383 C 371.593 184.296,371.641 184.200,371.723 182.636 C 371.805 181.080,371.856 180.976,372.596 180.891 C 373.345 180.804,373.386 180.715,373.468 178.999 C 373.554 177.206,373.558 177.198,374.486 177.108 C 375.260 177.034,375.434 176.882,375.510 176.218 C 375.575 175.659,375.768 175.418,376.155 175.418 C 377.727 175.418,377.865 168.712,376.301 168.319 C 375.855 168.208,375.580 167.866,375.463 167.277 C 375.314 166.534,375.153 166.400,374.407 166.400 C 373.539 166.400,373.527 166.380,373.527 164.858 C 373.527 163.246,373.185 162.618,372.305 162.618 C 371.874 162.618,371.782 162.373,371.782 161.222 C 371.782 159.746,371.421 159.127,370.560 159.127 C 370.172 159.127,370.036 158.901,370.036 158.255 C 370.036 157.479,369.939 157.382,369.164 157.382 C 368.315 157.382,368.004 156.624,368.274 155.219 C 368.364 154.755,368.001 153.602,367.777 153.636 C 366.667 153.807,366.255 153.559,366.255 152.722 L 366.255 151.844 353.091 151.878 C 345.851 151.897,339.764 151.975,339.564 152.053 M72.051 173.864 C 71.943 173.972,71.855 174.759,71.855 175.612 C 71.855 176.912,71.770 177.164,71.331 177.164 C 70.451 177.164,70.109 177.791,70.109 179.404 C 70.109 180.926,70.098 180.945,69.229 180.945 C 68.483 180.945,68.322 181.079,68.174 181.822 C 68.056 182.411,67.781 182.753,67.336 182.865 C 66.609 183.047,66.337 183.724,66.331 185.362 C 66.328 186.314,66.238 186.444,65.527 186.526 C 64.771 186.613,64.723 186.709,64.641 188.273 C 64.559 189.829,64.507 189.933,63.768 190.018 L 62.982 190.109 62.982 193.600 L 62.982 197.091 63.782 197.183 C 64.553 197.272,64.582 197.336,64.582 198.978 C 64.582 200.634,64.606 200.686,65.455 200.873 C 66.261 201.050,66.327 201.161,66.327 202.327 C 66.327 204.015,66.554 204.509,67.329 204.509 C 67.895 204.509,68.013 204.725,68.244 206.182 C 68.487 207.713,68.577 207.862,69.309 207.947 C 70.009 208.027,70.109 208.164,70.109 209.038 C 70.109 209.953,70.182 210.036,70.982 210.036 L 71.855 210.036 71.855 211.782 L 71.855 213.527 72.727 213.527 C 73.495 213.527,73.600 213.628,73.600 214.366 C 73.600 215.559,73.586 215.557,85.673 215.543 C 99.218 215.527,98.686 215.610,99.027 213.467 C 99.263 211.983,99.368 211.803,100.045 211.724 C 100.747 211.643,100.806 211.520,100.887 209.982 C 100.968 208.425,101.020 208.321,101.759 208.236 C 102.407 208.161,102.561 207.982,102.635 207.218 C 102.709 206.454,102.864 206.274,103.508 206.199 C 104.245 206.114,104.296 206.010,104.378 204.436 C 104.460 202.874,104.513 202.764,105.185 202.764 C 106.034 202.764,106.473 201.866,106.473 200.127 C 106.473 199.049,106.524 198.982,107.345 198.982 C 108.121 198.982,108.218 198.885,108.218 198.109 C 108.218 197.463,108.354 197.236,108.742 197.236 C 109.703 197.236,109.964 196.610,109.964 194.305 L 109.964 192.073 109.091 191.898 C 108.292 191.738,108.215 191.619,108.185 190.480 C 108.129 188.421,108.107 188.368,107.273 188.272 C 106.833 188.221,106.464 188.025,106.453 187.835 C 106.313 185.372,106.047 184.727,105.173 184.727 C 104.525 184.727,104.436 184.605,104.436 183.709 C 104.436 182.772,104.367 182.691,103.564 182.691 L 102.691 182.691 102.691 180.945 L 102.691 179.200 101.818 179.200 C 100.963 179.200,100.945 179.170,100.945 177.725 C 100.945 176.216,100.507 175.418,99.676 175.418 C 99.415 175.418,99.202 175.096,99.147 174.618 L 99.055 173.818 85.651 173.743 C 78.280 173.701,72.160 173.756,72.051 173.864 M148.553 173.902 C 148.485 174.016,148.339 174.788,148.227 175.619 C 148.042 176.984,147.942 177.146,147.175 177.315 C 146.355 177.495,146.327 177.557,146.327 179.223 C 146.327 180.943,146.326 180.945,145.455 180.945 C 144.694 180.945,144.582 181.050,144.582 181.754 C 144.582 182.376,144.390 182.636,143.757 182.875 C 143.004 183.159,142.927 183.322,142.877 184.740 C 142.813 186.546,142.865 186.453,141.875 186.535 C 141.165 186.594,141.091 186.727,140.917 188.265 C 140.744 189.791,140.664 189.939,139.964 190.020 L 139.200 190.109 139.118 193.673 L 139.037 197.236 139.918 197.236 C 140.781 197.236,140.800 197.268,140.800 198.670 C 140.800 200.207,141.305 201.018,142.261 201.018 C 142.722 201.018,142.821 201.279,142.895 202.691 C 142.977 204.274,143.024 204.369,143.782 204.456 C 144.460 204.534,144.586 204.688,144.610 205.474 C 144.683 207.811,144.698 207.851,145.510 207.945 C 146.154 208.019,146.309 208.200,146.383 208.963 C 146.457 209.732,146.610 209.907,147.273 209.983 C 148.020 210.069,148.073 210.166,148.073 211.452 C 148.073 212.977,148.435 213.527,149.440 213.527 C 149.983 213.527,150.109 213.685,150.109 214.366 C 150.109 214.990,150.277 215.250,150.764 215.380 C 151.629 215.612,172.923 215.609,174.327 215.377 L 175.418 215.197 175.418 213.489 C 175.418 211.786,175.420 211.782,176.291 211.782 C 177.061 211.782,177.164 211.682,177.164 210.932 C 177.164 210.229,177.311 210.050,178.017 209.895 C 178.549 209.778,178.870 209.523,178.870 209.218 C 178.870 207.362,179.286 206.285,180.036 206.198 C 180.750 206.115,180.806 205.999,180.887 204.436 C 180.950 203.230,181.092 202.753,181.396 202.727 C 181.628 202.707,181.982 202.675,182.182 202.655 C 182.420 202.631,182.575 201.989,182.632 200.800 C 182.718 199.000,182.727 198.982,183.578 198.982 C 184.358 198.982,184.436 198.893,184.436 198.004 C 184.436 197.131,184.510 197.040,185.130 197.159 C 186.038 197.332,186.158 197.086,186.334 194.669 C 186.496 192.449,186.056 191.522,184.975 191.805 C 184.492 191.931,184.436 191.752,184.436 190.082 L 184.436 188.218 183.564 188.218 C 182.692 188.218,182.691 188.216,182.691 186.492 C 182.691 184.826,182.663 184.763,181.892 184.674 C 181.261 184.601,181.063 184.399,180.945 183.709 C 180.828 183.019,180.630 182.817,179.999 182.744 C 179.264 182.660,179.200 182.551,179.200 181.386 C 179.200 179.607,178.980 179.200,178.019 179.200 C 177.207 179.200,177.190 179.166,177.105 177.382 C 177.022 175.639,176.985 175.560,176.218 175.472 C 175.547 175.394,175.418 175.241,175.418 174.521 L 175.418 173.663 162.047 173.679 C 154.693 173.687,148.620 173.787,148.553 173.902 M224.934 174.019 C 224.740 174.213,224.582 174.989,224.582 175.744 C 224.582 177.033,224.528 177.129,223.709 177.309 C 222.859 177.496,222.836 177.546,222.836 179.223 L 222.836 180.945 221.956 180.945 C 221.210 180.945,221.050 181.079,220.901 181.822 C 220.783 182.411,220.509 182.753,220.063 182.865 C 219.337 183.047,219.065 183.724,219.059 185.362 C 219.055 186.314,218.965 186.444,218.255 186.526 C 217.498 186.613,217.450 186.709,217.368 188.273 C 217.286 189.829,217.234 189.933,216.495 190.018 L 215.709 190.109 215.627 193.673 L 215.546 197.236 216.427 197.236 L 217.309 197.236 217.309 198.959 C 217.309 200.636,217.332 200.686,218.182 200.873 C 218.988 201.050,219.055 201.161,219.055 202.327 C 219.055 204.015,219.282 204.509,220.057 204.509 C 220.622 204.509,220.740 204.725,220.971 206.182 C 221.214 207.713,221.304 207.862,222.036 207.947 C 222.736 208.027,222.836 208.164,222.836 209.038 C 222.836 209.953,222.909 210.036,223.709 210.036 L 224.582 210.036 224.582 211.782 L 224.582 213.527 225.455 213.527 C 226.194 213.527,226.327 213.640,226.327 214.262 C 226.327 214.792,226.546 215.079,227.113 215.295 C 227.917 215.601,251.146 215.570,251.452 215.263 C 251.599 215.116,251.861 213.397,251.907 212.291 C 251.921 211.924,252.171 211.782,252.800 211.782 C 253.568 211.782,253.673 211.681,253.673 210.941 C 253.673 210.282,253.833 210.059,254.412 209.914 C 254.859 209.802,255.071 209.599,254.949 209.401 C 254.825 209.201,254.877 209.155,255.082 209.281 C 255.874 209.770,255.476 211.698,254.545 211.884 L 253.673 212.058 253.673 215.556 L 253.673 219.055 254.545 219.055 C 255.417 219.055,255.418 219.057,255.418 220.777 C 255.418 222.438,255.448 222.506,256.255 222.683 C 257.032 222.854,257.106 222.990,257.288 224.597 C 257.477 226.267,257.513 226.327,258.327 226.327 C 259.150 226.327,259.173 226.368,259.258 228.000 C 259.341 229.584,259.388 229.678,260.145 229.765 C 260.845 229.845,260.945 229.982,260.945 230.856 C 260.945 231.768,261.020 231.855,261.804 231.855 C 262.644 231.855,262.664 231.889,262.749 233.527 C 262.832 235.111,262.879 235.205,263.636 235.292 C 264.190 235.356,264.436 235.551,264.436 235.926 C 264.436 237.374,264.526 237.384,276.748 237.347 C 291.012 237.304,289.925 237.522,290.005 234.691 C 290.034 233.680,290.100 233.600,290.909 233.600 C 291.670 233.600,291.782 233.496,291.782 232.791 C 291.782 232.156,291.973 231.910,292.672 231.646 C 293.161 231.462,293.538 231.138,293.510 230.928 C 293.252 229.014,293.534 228.073,294.366 228.073 C 295.297 228.073,295.553 227.563,295.560 225.692 C 295.563 224.740,295.653 224.610,296.364 224.528 C 297.024 224.452,297.179 224.277,297.253 223.522 C 297.402 221.987,299.055 221.921,299.055 223.449 C 299.055 224.426,298.969 224.553,298.255 224.635 C 297.497 224.722,297.450 224.816,297.367 226.400 C 297.296 227.766,297.187 228.073,296.771 228.073 C 295.908 228.073,295.564 228.707,295.564 230.294 C 295.564 231.800,295.553 231.819,294.618 231.909 C 293.831 231.985,293.657 232.133,293.581 232.799 C 293.517 233.355,293.280 233.651,292.806 233.770 C 291.912 233.994,291.743 234.761,291.804 238.309 C 291.839 240.336,291.743 241.310,291.484 241.549 C 291.200 241.812,291.161 241.809,291.315 241.536 C 291.442 241.311,291.244 241.113,290.776 240.995 C 290.369 240.893,290.020 240.627,290.000 240.405 C 289.980 240.182,289.947 239.836,289.927 239.636 C 289.899 239.352,287.147 239.273,277.236 239.273 L 264.582 239.273 264.576 239.998 C 264.572 240.574,264.392 240.754,263.704 240.872 C 262.980 240.996,262.821 241.174,262.747 241.947 C 262.673 242.709,262.518 242.890,261.874 242.964 C 261.061 243.058,261.046 243.098,260.974 245.435 C 260.950 246.221,260.824 246.375,260.145 246.453 C 259.388 246.541,259.341 246.635,259.258 248.218 C 259.185 249.630,259.086 249.891,258.624 249.891 C 257.668 249.891,257.164 250.702,257.164 252.239 C 257.164 253.638,257.143 253.673,256.291 253.673 C 255.530 253.673,255.418 253.777,255.418 254.482 C 255.418 255.116,255.227 255.363,254.534 255.624 L 253.650 255.958 253.691 259.814 C 253.738 264.241,253.781 264.436,254.722 264.436 C 255.302 264.436,255.418 264.583,255.418 265.309 C 255.418 265.790,255.582 266.202,255.782 266.226 C 255.982 266.250,256.342 266.283,256.582 266.299 C 256.848 266.316,257.048 266.669,257.095 267.200 C 257.314 269.693,257.436 269.964,258.340 269.964 C 259.152 269.964,259.592 271.712,259.127 273.088 C 259.087 273.206,259.447 273.371,259.927 273.453 C 260.744 273.593,260.806 273.696,260.891 275.049 C 260.993 276.653,261.327 277.236,262.145 277.236 C 262.558 277.236,262.691 277.449,262.691 278.109 C 262.691 278.885,262.788 278.982,263.564 278.982 C 264.289 278.982,264.436 279.099,264.436 279.673 C 264.436 281.018,264.547 281.030,277.274 281.012 C 288.237 280.997,290.137 280.896,290.061 280.331 C 289.924 279.308,290.089 278.982,290.744 278.982 C 291.395 278.982,291.883 278.331,291.757 277.630 C 291.523 276.320,291.821 275.525,292.582 275.438 C 293.349 275.349,293.385 275.270,293.468 273.527 C 293.554 271.723,293.562 271.709,294.421 271.709 C 295.151 271.709,295.315 271.572,295.462 270.836 C 295.579 270.251,295.810 269.964,296.165 269.964 C 296.882 269.964,297.126 269.495,297.304 267.782 C 297.441 266.455,297.525 266.319,298.255 266.235 C 299.027 266.146,299.055 266.084,299.055 264.417 C 299.055 262.693,299.056 262.691,299.927 262.691 L 300.800 262.691 300.800 260.096 L 300.800 257.501 299.927 257.309 C 299.108 257.129,299.055 257.033,299.055 255.744 C 299.055 254.290,298.691 253.673,297.833 253.673 C 297.445 253.673,297.309 253.446,297.309 252.800 C 297.309 252.024,297.212 251.927,296.436 251.927 C 295.604 251.927,295.563 251.870,295.560 250.691 C 295.553 248.650,295.317 248.145,294.366 248.145 C 293.535 248.145,293.527 248.130,293.527 246.400 L 293.527 244.655 292.655 244.655 C 291.797 244.655,291.782 244.628,291.782 243.144 C 291.782 241.769,291.819 241.685,292.194 242.198 C 292.421 242.509,292.704 242.666,292.822 242.548 C 293.150 242.220,293.806 242.894,293.623 243.370 C 293.393 243.970,294.091 244.691,294.808 244.593 C 295.364 244.517,295.426 244.671,295.505 246.327 C 295.591 248.127,295.600 248.145,296.450 248.145 C 297.219 248.145,297.312 248.244,297.338 249.091 C 297.409 251.447,297.424 251.487,298.237 251.581 C 298.882 251.656,299.036 251.836,299.110 252.599 C 299.185 253.368,299.337 253.543,300.000 253.619 C 300.736 253.704,300.800 253.813,300.800 254.977 C 300.800 256.755,301.020 257.164,301.976 257.164 C 302.692 257.164,302.811 257.287,302.891 258.109 L 302.982 259.055 314.764 259.126 C 328.142 259.207,328.145 259.207,328.145 258.033 C 328.145 257.343,328.281 257.187,328.945 257.110 C 329.700 257.023,329.754 256.918,329.891 255.277 C 330.027 253.654,330.086 253.535,330.764 253.531 C 331.432 253.528,331.513 253.381,331.758 251.724 C 332.001 250.083,332.093 249.912,332.776 249.833 C 333.475 249.752,333.533 249.628,333.615 248.073 C 333.700 246.434,333.719 246.400,334.560 246.400 C 335.344 246.400,335.418 246.313,335.418 245.401 C 335.418 244.528,335.519 244.391,336.218 244.310 C 336.976 244.223,337.023 244.129,337.105 242.545 C 337.190 240.924,337.218 240.873,338.015 240.873 C 338.946 240.873,339.200 240.183,339.200 237.657 C 339.200 236.158,338.687 235.345,337.739 235.345 C 337.278 235.345,337.179 235.085,337.105 233.673 C 337.023 232.089,336.976 231.995,336.218 231.908 C 335.540 231.830,335.414 231.675,335.390 230.890 C 335.317 228.553,335.302 228.513,334.490 228.419 C 333.846 228.344,333.691 228.164,333.617 227.401 C 333.543 226.632,333.390 226.457,332.727 226.381 C 331.980 226.295,331.927 226.198,331.927 224.912 C 331.927 223.393,331.565 222.836,330.574 222.836 C 329.973 222.836,329.911 222.685,329.832 221.018 C 329.749 219.276,329.712 219.196,328.945 219.108 C 328.275 219.031,328.145 218.877,328.145 218.162 L 328.145 217.309 315.491 217.309 L 302.836 217.309 302.836 218.182 C 302.836 218.958,302.739 219.055,301.964 219.055 C 301.484 219.055,301.074 219.153,301.054 219.273 C 301.033 219.393,300.985 219.800,300.947 220.177 C 300.868 220.950,300.320 221.403,299.735 221.178 C 299.499 221.088,299.337 221.241,299.325 221.569 C 299.305 222.088,299.296 222.088,299.095 221.578 C 298.646 220.438,299.057 219.094,299.884 218.998 C 300.645 218.910,300.656 218.876,300.739 216.359 L 300.823 213.808 299.952 213.634 C 299.123 213.468,299.078 213.383,298.995 211.821 C 298.914 210.274,298.864 210.177,298.109 210.090 C 297.399 210.008,297.309 209.878,297.305 208.926 C 297.300 207.428,297.005 206.488,296.590 206.648 C 296.040 206.858,295.494 206.385,295.417 205.632 C 295.379 205.254,295.330 204.847,295.310 204.727 C 295.289 204.607,294.880 204.509,294.400 204.509 L 293.527 204.509 293.527 202.764 L 293.527 201.018 292.655 201.018 L 291.782 201.018 291.782 199.265 C 291.782 197.551,291.763 197.509,290.909 197.338 C 290.182 197.193,290.036 197.024,290.036 196.327 L 290.036 195.491 276.669 195.491 C 264.245 195.491,263.281 195.527,263.005 196.000 C 262.785 196.378,262.706 195.926,262.700 194.247 L 262.691 191.985 261.818 191.811 C 261.016 191.650,260.943 191.534,260.909 190.364 C 260.853 188.386,260.846 188.369,260.036 188.275 C 259.333 188.194,259.256 188.048,259.078 186.475 C 258.898 184.888,258.827 184.757,258.097 184.673 C 257.355 184.587,257.304 184.485,257.222 182.924 C 257.135 181.265,256.559 180.565,255.712 181.089 C 255.535 181.198,255.418 180.858,255.418 180.235 C 255.418 179.283,255.350 179.200,254.559 179.200 C 253.709 179.200,253.700 179.182,253.614 177.382 C 253.531 175.650,253.490 175.559,252.745 175.473 C 252.140 175.403,251.942 175.205,251.872 174.601 L 251.782 173.818 238.534 173.743 C 228.472 173.685,225.201 173.752,224.934 174.019 M262.575 198.864 C 262.489 199.089,262.087 199.273,261.682 199.273 C 260.976 199.273,260.945 199.345,260.945 201.018 C 260.945 202.757,260.942 202.764,260.087 202.764 C 259.236 202.764,259.227 202.782,259.141 204.582 C 259.062 206.238,259.000 206.393,258.445 206.317 C 257.728 206.218,257.029 206.939,257.259 207.539 C 257.442 208.015,256.786 208.689,256.459 208.362 C 256.340 208.243,256.058 208.400,255.831 208.711 C 255.455 209.224,255.418 209.140,255.418 207.765 C 255.418 206.281,255.433 206.255,256.291 206.255 L 257.164 206.255 257.164 204.509 C 257.164 202.779,257.171 202.764,258.002 202.764 C 258.953 202.764,259.189 202.259,259.196 200.218 C 259.200 199.039,259.241 198.982,260.073 198.982 C 260.848 198.982,260.945 198.885,260.945 198.109 C 260.945 197.439,261.077 197.236,261.510 197.236 C 261.821 197.236,262.181 197.073,262.310 196.873 C 262.585 196.448,262.821 198.222,262.575 198.864 M72.200 217.680 C 72.030 217.884,71.851 218.702,71.800 219.497 C 71.715 220.849,71.653 220.952,70.836 221.092 C 70.356 221.175,69.996 221.339,70.036 221.457 C 70.494 222.813,70.061 224.582,69.270 224.582 C 68.318 224.582,68.083 225.086,68.077 227.144 C 68.074 227.913,67.959 228.328,67.779 228.217 C 67.132 227.817,66.327 228.393,66.327 229.256 C 66.327 229.966,66.208 230.109,65.620 230.109 C 64.969 230.109,64.481 230.760,64.606 231.461 C 64.841 232.771,64.542 233.566,63.782 233.653 L 62.982 233.745 62.982 238.109 L 62.982 242.473 63.765 242.563 C 64.409 242.638,64.564 242.818,64.637 243.581 C 64.711 244.342,64.854 244.510,65.432 244.515 C 66.239 244.523,66.266 244.579,66.389 246.545 C 66.473 247.888,66.542 248.007,67.276 248.092 C 67.860 248.159,68.082 248.354,68.106 248.819 C 68.125 249.169,68.170 249.585,68.207 249.745 C 68.245 249.905,68.295 250.388,68.319 250.817 C 68.355 251.439,68.526 251.616,69.164 251.690 C 69.920 251.777,69.968 251.872,70.050 253.439 C 70.137 255.099,70.713 255.798,71.561 255.274 C 71.737 255.165,71.855 255.506,71.855 256.128 C 71.855 257.085,71.921 257.164,72.727 257.164 C 73.496 257.164,73.600 257.264,73.600 258.005 C 73.600 259.219,73.399 259.200,86.278 259.200 C 99.742 259.200,99.200 259.304,99.200 256.727 C 99.200 255.467,99.232 255.418,100.073 255.418 C 100.833 255.418,100.945 255.314,100.945 254.609 C 100.945 253.978,101.137 253.728,101.818 253.471 C 102.644 253.159,102.691 253.055,102.691 251.516 C 102.691 249.904,102.698 249.891,103.564 249.891 L 104.436 249.891 104.436 248.145 C 104.436 246.409,104.441 246.400,105.289 246.400 C 106.144 246.400,106.730 245.597,106.338 244.963 C 106.135 244.634,107.053 244.098,107.527 244.269 C 107.919 244.411,108.209 243.448,108.214 241.983 C 108.218 241.031,108.308 240.901,109.018 240.819 C 109.815 240.728,109.819 240.717,109.902 238.202 L 109.986 235.677 109.175 235.584 C 108.432 235.499,108.351 235.368,108.213 234.036 C 108.033 232.303,107.792 231.855,107.037 231.855 C 106.727 231.855,106.458 231.691,106.439 231.491 C 106.421 231.291,106.388 230.931,106.366 230.691 C 106.342 230.423,105.966 230.220,105.395 230.164 C 104.467 230.075,104.463 230.066,104.377 228.273 C 104.295 226.558,104.254 226.468,103.505 226.382 C 102.766 226.297,102.714 226.193,102.632 224.637 C 102.550 223.073,102.502 222.977,101.745 222.890 C 101.035 222.808,100.945 222.678,100.941 221.726 C 100.935 220.080,100.663 219.411,99.923 219.225 C 99.470 219.111,99.183 218.766,99.055 218.182 L 98.863 217.309 85.685 217.309 C 75.358 217.309,72.441 217.389,72.200 217.680 M150.109 218.182 C 150.109 218.950,150.009 219.055,149.267 219.055 C 148.416 219.055,148.073 219.474,148.073 220.514 C 148.073 220.885,147.824 221.081,147.273 221.144 C 146.439 221.240,146.421 221.287,146.358 223.491 C 146.330 224.502,146.264 224.582,145.455 224.582 C 144.583 224.582,144.582 224.584,144.582 226.308 C 144.582 227.975,144.554 228.037,143.782 228.126 C 143.115 228.203,142.967 228.376,142.891 229.164 C 142.815 229.950,142.679 230.109,142.082 230.109 C 141.203 230.109,141.109 230.353,140.821 233.382 C 140.809 233.502,140.594 233.600,140.343 233.600 C 139.261 233.600,139.055 234.311,139.055 238.033 C 139.055 241.716,139.325 242.766,140.222 242.566 C 140.481 242.508,140.682 242.751,140.748 243.200 C 140.897 244.203,141.330 244.655,142.145 244.655 C 142.796 244.655,142.836 244.756,142.836 246.400 L 142.836 248.145 143.709 248.145 C 144.581 248.145,144.582 248.148,144.582 249.872 C 144.582 251.538,144.609 251.601,145.382 251.690 C 146.112 251.774,146.195 251.910,146.332 253.236 C 146.511 254.959,146.754 255.418,147.489 255.418 C 147.867 255.418,148.062 255.663,148.126 256.218 C 148.202 256.881,148.377 257.034,149.146 257.108 C 149.955 257.186,150.086 257.318,150.165 258.126 L 150.255 259.055 162.036 259.126 C 175.415 259.207,175.418 259.207,175.418 258.033 C 175.418 257.343,175.554 257.187,176.218 257.110 C 176.972 257.023,177.027 256.918,177.164 255.277 C 177.299 253.654,177.358 253.535,178.036 253.531 C 178.704 253.528,178.785 253.381,179.031 251.724 C 179.274 250.083,179.366 249.912,180.049 249.833 C 180.747 249.752,180.806 249.628,180.887 248.073 C 180.973 246.434,180.992 246.400,181.833 246.400 C 182.616 246.400,182.691 246.313,182.691 245.401 C 182.691 244.528,182.791 244.391,183.491 244.310 C 184.248 244.223,184.296 244.129,184.378 242.545 C 184.463 240.925,184.491 240.873,185.286 240.873 C 186.007 240.873,186.127 240.742,186.286 239.782 C 186.736 237.061,186.189 235.345,184.873 235.345 C 184.538 235.345,184.436 234.976,184.436 233.765 C 184.436 232.176,183.850 231.463,182.984 231.998 C 182.808 232.107,182.691 231.767,182.691 231.144 C 182.691 230.192,182.622 230.109,181.832 230.109 C 180.982 230.109,180.972 230.091,180.887 228.291 C 180.804 226.548,180.767 226.469,180.000 226.381 C 179.290 226.299,179.200 226.169,179.196 225.217 C 179.189 223.346,178.934 222.836,178.002 222.836 C 177.171 222.836,176.888 221.895,177.146 219.981 C 177.175 219.771,176.797 219.448,176.308 219.263 C 175.609 218.999,175.418 218.753,175.418 218.118 L 175.418 217.309 162.764 217.309 L 150.109 217.309 150.109 218.182 " stroke="none" fill="#58595b" fill-rule="evenodd"></path></g></svg>